HIERARCHY
ROOT Hips
{
	OFFSET 0.00000 0.00000 0.00000
	CHANNELS 6 Xposition Yposition Zposition Zrotation Yrotation Xrotation 
	JOINT LHipJoint
	{
		OFFSET 0 0 0
		CHANNELS 3 Zrotation Yrotation Xrotation
		JOINT LeftUpLeg
		{
			OFFSET 1.75344 -1.53157 0.77399
			CHANNELS 3 Zrotation Yrotation Xrotation
			JOINT LeftLeg
			{
				OFFSET 2.25415 -6.19323 0.00000
				CHANNELS 3 Zrotation Yrotation Xrotation
				JOINT LeftFoot
				{
					OFFSET 2.30342 -6.32861 0.00000
					CHANNELS 3 Zrotation Yrotation Xrotation
					JOINT LeftToeBase
					{
						OFFSET 0.10958 -0.30108 1.49206
						CHANNELS 3 Zrotation Yrotation Xrotation
						End Site
						{
							OFFSET 0.00000 -0.00000 0.77783
						}
					}
				}
			}
		}
	}
	JOINT RHipJoint
	{
		OFFSET 0 0 0
		CHANNELS 3 Zrotation Yrotation Xrotation
		JOINT RightUpLeg
		{
			OFFSET -1.81912 -1.53156 0.77399
			CHANNELS 3 Zrotation Yrotation Xrotation
			JOINT RightLeg
			{
				OFFSET -2.22882 -6.12365 0.00000
				CHANNELS 3 Zrotation Yrotation Xrotation
				JOINT RightFoot
				{
					OFFSET -2.21943 -6.09785 0.00000
					CHANNELS 3 Zrotation Yrotation Xrotation
					JOINT RightToeBase
					{
						OFFSET -0.18931 -0.52012 1.59379
						CHANNELS 3 Zrotation Yrotation Xrotation
						End Site
						{
							OFFSET -0.00000 -0.00000 0.84686
						}
					}
				}
			}
		}
	}
	JOINT LowerBack
	{
		OFFSET 0 0 0
		CHANNELS 3 Zrotation Yrotation Xrotation
		JOINT Spine
		{
			OFFSET -0.00200 1.66634 -0.14248
			CHANNELS 3 Zrotation Yrotation Xrotation
			JOINT Spine1
			{
				OFFSET -0.00875 1.64542 0.09514
				CHANNELS 3 Zrotation Yrotation Xrotation
				JOINT Neck
				{
					OFFSET 0 0 0
					CHANNELS 3 Zrotation Yrotation Xrotation
					JOINT Neck1
					{
						OFFSET 0.02257 1.59605 0.00839
						CHANNELS 3 Zrotation Yrotation Xrotation
						JOINT Head
						{
							OFFSET -0.10214 1.57530 -0.23335
							CHANNELS 3 Zrotation Yrotation Xrotation
							End Site
							{
								OFFSET -0.03588 1.60717 -0.08062
							}
						}
					}
				}
				JOINT LeftShoulder
				{
					OFFSET 0 0 0
					CHANNELS 3 Zrotation Yrotation Xrotation
					JOINT LeftArm
					{
						OFFSET 2.54983 1.10186 0.40078
						CHANNELS 3 Zrotation Yrotation Xrotation
						JOINT LeftForeArm
						{
							OFFSET 4.28840 -0.00000 0.00000
							CHANNELS 3 Zrotation Yrotation Xrotation
							JOINT LeftHand
							{
								OFFSET 3.06552 -0.00000 -0.00000
								CHANNELS 3 Zrotation Yrotation Xrotation
								JOINT LeftFingerBase
								{
									OFFSET 0 0 0
									CHANNELS 3 Zrotation Yrotation Xrotation
									JOINT LeftHandIndex1
									{
										OFFSET 0.75304 -0.00000 0.00000
										CHANNELS 3 Zrotation Yrotation Xrotation
										End Site
										{
											OFFSET 0.60712 -0.00000 0.00000
										}
									}
								}
								JOINT LThumb
								{
									OFFSET 0 0 0
									CHANNELS 3 Zrotation Yrotation Xrotation
									End Site
									{
										OFFSET 0.61639 -0.00000 0.61639
									}
								}
							}
						}
					}
				}
				JOINT RightShoulder
				{
					OFFSET 0 0 0
					CHANNELS 3 Zrotation Yrotation Xrotation
					JOINT RightArm
					{
						OFFSET -2.60909 1.35448 0.21802
						CHANNELS 3 Zrotation Yrotation Xrotation
						JOINT RightForeArm
						{
							OFFSET -4.52172 -0.00000 -0.00000
							CHANNELS 3 Zrotation Yrotation Xrotation
							JOINT RightHand
							{
								OFFSET -2.89140 -0.00000 0.00000
								CHANNELS 3 Zrotation Yrotation Xrotation
								JOINT RightFingerBase
								{
									OFFSET 0 0 0
									CHANNELS 3 Zrotation Yrotation Xrotation
									JOINT RightHandIndex1
									{
										OFFSET -0.68054 -0.00000 0.00000
										CHANNELS 3 Zrotation Yrotation Xrotation
										End Site
										{
											OFFSET -0.54867 -0.00000 0.00000
										}
									}
								}
								JOINT RThumb
								{
									OFFSET 0 0 0
									CHANNELS 3 Zrotation Yrotation Xrotation
									End Site
									{
										OFFSET -0.55705 -0.00000 0.55705
									}
								}
							}
						}
					}
				}
			}
		}
	}
}
MOTION
Frames: 16
Frame Time: .0083333
8.5707 15.0863 42.0294 0 0 0 0 0 0 -21 0 0 0 0 0 0 0 0 0 0 0 0 0 0 21 0 0 0 0 0 0 0 0 0 0 0 0 0 0 0 0 0 0 0 0 0 0 -16 0 0 21 0 0 11 0 0 0 -8 0 0 0 0 0 0 0 0 0 0 0 0 0 0 0 0 0 0 0 0 8 0 0 0 0 0 0 0 0 0 0 0 0 0 0 0 0 0
8.5707 15.0863 42.0294 -178.9740 -9.7328 -179.1450 0.0000 0.0000 0.0000 -23.3044 -21.6970 -6.4974 3.1215 10.8891 31.9068 1.7974 5.0045 -27.5310 2.4804 -9.8021 -28.3383 0.0000 0.0000 0.0000 22.0909 5.4399 -8.1271 -2.6470 -10.1004 29.3024 -1.4071 -13.2519 -30.6465 -0.0472 -1.4027 3.8576 0.6380 1.3882 7.1608 -0.7294 1.8437 -3.3288 -1.3715 0.8392 -7.4716 1.7914 6.9458 -6.5369 4.3970 7.3376 22.4272 1.7209 3.5976 7.8911 -0.0000 -0.0000 0.0000 -84.3016 11.2098 39.6624 20.8420 -31.6435 -5.9668 -0.0000 -0.0000 16.1624 8.1632 -37.2867 -4.9666 -7.1250 0.0000 -0.0000 -13.6535 -6.6534 15.5685 -0.0000 -0.0000 0.0000 78.8505 -18.9307 65.1495 -29.7924 40.7148 -11.2740 0.0000 -0.0000 -27.8351 1.9767 -63.3384 -1.7667 7.1250 -0.0000 -0.0000 -161.5910 -4.4479 17.8944
8.5704 15.0948 42.0315 -178.8040 -9.3664 -179.0410 0.0000 0.0000 0.0000 -23.0835 -21.7746 -6.6127 3.1340 10.9088 31.9730 1.8622 4.7095 -27.8183 2.2935 -9.4523 -27.2207 0.0000 0.0000 0.0000 22.2831 5.7771 -8.1341 -2.6153 -10.0445 29.1210 -1.3375 -13.5772 -30.4790 -0.0401 -1.2923 3.5534 0.7703 1.4954 7.1277 -0.7242 1.9995 -3.3942 -1.4613 0.9077 -7.5141 1.8454 6.8902 -6.4374 4.3677 7.2662 22.3157 1.6899 3.5655 7.8408 0.0000 0.0000 0.0000 -84.2533 11.2852 39.7024 20.8155 -31.6123 -5.9529 -0.0000 -0.0000 16.0716 7.5392 -37.3110 -4.5866 -7.1250 0.0000 -0.0000 -13.9815 -6.5923 15.9515 0.0000 0.0000 0.0000 78.9200 -18.9648 65.1661 -29.7575 40.6846 -11.2512 0.0000 -0.0000 -27.8350 2.8489 -63.5565 -2.5513 7.1250 -0.0000 -0.0000 -161.3403 -4.6956 18.0764
8.5695 15.0983 42.0334 -178.7310 -9.0165 -178.8350 0.0000 0.0000 0.0000 -22.9597 -21.9044 -6.7779 3.1322 10.9060 31.9637 1.8754 4.7521 -27.9294 2.1909 -9.2530 -26.5899 0.0000 0.0000 0.0000 22.3286 6.1045 -8.3064 -2.6026 -10.0221 29.0482 -1.2911 -13.6530 -30.2434 -0.0292 -1.1040 3.0350 0.8055 1.5928 6.9310 -0.7229 2.1297 -3.4487 -1.4913 0.9692 -7.4533 1.6324 6.8991 -6.5511 4.6712 7.2264 22.4569 1.8270 3.5534 7.8862 -0.0000 -0.0000 0.0000 -84.2627 11.3177 39.6485 20.8758 -31.6831 -5.9846 -0.0000 -0.0000 15.6410 6.4453 -36.9865 -3.8881 -7.1250 0.0000 -0.0000 -14.5283 -6.1373 16.5124 -0.0000 -0.0000 0.0000 78.9321 -18.9389 65.2092 -29.8014 40.7226 -11.2799 0.0000 -0.0000 -27.9381 2.8053 -63.5550 -2.5121 7.1250 -0.0000 -0.0000 -161.3531 -4.6919 18.0639
8.5705 15.1044 42.0340 -178.7450 -8.7122 -178.5350 0.0000 0.0000 0.0000 -22.8506 -21.8848 -7.0787 3.1258 10.8960 31.9299 1.8705 4.8118 -27.9270 2.1205 -9.1128 -26.1487 0.0000 0.0000 0.0000 22.2742 6.4469 -8.5605 -2.5956 -10.0098 29.0084 -1.2771 -13.5914 -30.0972 -0.0325 -1.1638 3.1995 0.6991 1.6849 6.6298 -0.7178 2.2366 -3.5210 -1.4308 1.0260 -7.3571 1.5180 6.8866 -6.7085 4.8262 7.1629 22.7029 1.9029 3.5220 7.9862 0.0000 0.0000 0.0000 -84.2938 11.4029 39.5689 21.0422 -31.8776 -6.0722 -0.0000 -0.0000 14.6958 4.5852 -36.7513 -2.7473 -7.1250 0.0000 -0.0000 -15.4849 -5.6882 17.5691 0.0000 0.0000 0.0000 78.9147 -18.9399 65.2232 -29.8334 40.7502 -11.3007 0.0000 -0.0000 -28.0403 2.3339 -64.2095 -2.1016 7.1250 -0.0000 -0.0000 -161.4855 -5.2876 17.7012
8.5729 15.1116 42.0335 -178.7280 -8.4216 -178.2740 0.0000 0.0000 0.0000 -22.7041 -21.7886 -7.3744 3.1191 10.8855 31.8946 1.8858 4.7848 -28.0154 1.9882 -8.8414 -25.3003 0.0000 0.0000 0.0000 22.2648 6.7978 -8.7637 -2.5952 -10.0089 29.0057 -1.2904 -13.3599 -29.9806 -0.0443 -1.3579 3.7341 0.6115 1.7588 6.3478 -0.7147 2.3225 -3.5625 -1.3796 1.0723 -7.2393 1.6717 6.8551 -6.8466 4.6254 7.1244 22.8529 1.8188 3.4961 8.0781 -0.0000 0.0000 0.0000 -84.2467 11.5614 39.7285 20.9893 -31.8158 -6.0443 -0.0000 -0.0000 15.1856 6.0804 -36.7674 -3.6483 -7.1250 0.0000 -0.0000 -14.7040 -5.8808 16.6663 -0.0000 0.0000 0.0000 78.9073 -18.9295 65.2089 -29.8645 40.7770 -11.3210 0.0000 -0.0000 -28.0345 -0.2363 -64.7646 0.2138 7.1250 -0.0000 -0.0000 -162.1892 -5.7229 16.7982
8.5774 15.1192 42.0314 -178.7700 -7.8587 -177.8170 0.0000 0.0000 0.0000 -22.5203 -21.4781 -7.9919 3.1168 10.8818 31.8824 1.8723 5.0175 -28.0454 2.1413 -9.1544 -26.2795 0.0000 0.0000 0.0000 22.1546 7.3692 -9.1536 -2.5945 -10.0078 29.0020 -1.2931 -13.0936 -29.7650 -0.0381 -1.2594 3.4628 0.3755 1.9156 5.8647 -0.7161 2.5011 -3.6661 -1.2540 1.1697 -7.0757 1.8423 6.8339 -6.9567 4.3697 7.1113 22.9888 1.7144 3.4779 8.1628 -0.0000 0.0000 0.0000 -84.2532 11.6332 39.6937 20.9319 -31.7488 -6.0141 -0.0000 -0.0000 15.3961 6.0695 -36.7964 -3.6442 -7.1250 0.0000 -0.0000 -14.7117 -5.9074 16.6817 -0.0000 0.0000 0.0000 78.9272 -18.9208 65.1299 -29.8473 40.7622 -11.3098 0.0000 -0.0000 -27.8371 -3.4630 -64.4317 3.1246 7.1250 -0.0000 -0.0000 -163.1022 -5.3532 15.9745
8.5757 15.1178 42.0316 -178.7550 -7.7149 -177.8310 0.0000 0.0000 0.0000 -22.4888 -21.3276 -8.0506 3.1211 10.8885 31.9049 1.8668 5.1473 -28.0766 2.3605 -9.5798 -27.6264 0.0000 0.0000 0.0000 22.1528 7.4083 -9.1542 -2.5899 -9.9995 28.9752 -1.2879 -13.0617 -29.7026 -0.0266 -1.0534 2.8957 0.3845 1.9338 5.9146 -0.7246 2.5253 -3.6873 -1.2733 1.1801 -7.1259 1.8572 6.8285 -7.0607 4.3680 7.0753 23.2016 1.7174 3.4555 8.2550 -0.0000 -0.0000 0.0000 -84.2378 11.7467 39.7283 20.9892 -31.8158 -6.0443 -0.0000 -0.0000 15.0037 5.2283 -36.7616 -3.1347 -7.1250 0.0000 -0.0000 -15.1496 -5.7725 17.1811 -0.0000 -0.0000 0.0000 78.9824 -18.9710 65.0124 -29.8305 40.7477 -11.2988 0.0000 -0.0000 -27.6927 -4.1972 -64.3649 3.7853 7.1250 -0.0000 -0.0000 -163.3128 -5.2870 15.7782
8.5741 15.1187 42.0321 -178.5810 -7.6406 -177.8860 0.0000 0.0000 0.0000 -22.3132 -21.3464 -8.0237 3.1299 10.9024 31.9514 1.8712 5.2246 -28.1468 2.4221 -9.6948 -27.9941 0.0000 0.0000 0.0000 22.3436 7.3444 -9.1438 -2.5831 -9.9874 28.9360 -1.2732 -13.0640 -29.6064 -0.0278 -1.0755 2.9566 0.5903 1.9365 6.0131 -0.6907 2.5504 -3.7213 -1.3608 1.1823 -7.2111 1.7042 6.7893 -7.1627 4.5879 6.9627 23.4346 1.8136 3.4015 8.3381 0.0000 0.0000 0.0000 -84.1896 11.9227 39.8180 21.1480 -32.0007 -6.1282 -0.0000 -0.0000 14.4487 4.0478 -36.6882 -2.4210 -7.1250 0.0000 -0.0000 -15.7618 -5.5676 17.8774 0.0000 0.0000 0.0000 78.9522 -19.0177 65.0487 -29.8890 40.7981 -11.3370 0.0000 -0.0000 -27.7607 -3.9201 -64.6235 3.5429 7.1250 -0.0000 -0.0000 -163.2176 -5.5355 15.7943
8.5729 15.1203 42.0298 -178.4910 -7.6898 -177.9120 0.0000 0.0000 0.0000 -22.2291 -21.3563 -8.0280 3.1398 10.9180 32.0037 1.8662 5.2091 -28.1053 2.4962 -9.8310 -28.4311 0.0000 0.0000 0.0000 22.4442 7.2096 -9.1190 -2.5734 -9.9702 28.8802 -1.2960 -12.9087 -29.6239 -0.0432 -1.3407 3.6868 0.7195 1.8734 5.9948 -0.6687 2.4792 -3.7252 -1.4010 1.1416 -7.2020 1.5356 6.7630 -7.1424 4.7507 6.8944 23.5518 1.8899 3.3627 8.3607 -0.0000 0.0000 0.0000 -84.1550 12.1282 39.8082 21.2832 -32.1575 -6.2000 -0.0000 -0.0000 14.1724 3.2305 -36.7691 -1.9351 -7.1250 0.0000 -0.0000 -16.1914 -5.5572 18.4019 -0.0000 0.0000 0.0000 78.8730 -19.0300 65.2155 -29.9370 40.8394 -11.3684 0.0000 -0.0000 -27.8609 -3.7546 -64.7621 3.3971 7.1250 -0.0000 -0.0000 -163.1621 -5.6690 15.8069
8.5713 15.1172 42.0299 -178.4950 -7.4873 -177.9950 0.0000 0.0000 0.0000 -22.2839 -21.2264 -7.9466 3.1433 10.9234 32.0221 1.8873 5.1974 -28.2402 2.3331 -9.5279 -27.4612 0.0000 0.0000 0.0000 22.4173 7.2036 -9.0454 -2.5686 -9.9616 28.8524 -1.3119 -12.6959 -29.5472 -0.0415 -1.3156 3.6175 0.7349 1.9113 6.0877 -0.7059 2.5308 -3.7018 -1.4579 1.1656 -7.2271 1.5860 6.7838 -7.0909 4.7140 6.9184 23.5649 1.8698 3.3720 8.3592 0.0000 -0.0000 0.0000 -83.9850 12.4888 40.7680 21.1268 -31.9760 -6.1169 -0.0000 -0.0000 16.3304 10.2907 -36.0204 -6.0945 -7.1250 0.0000 -0.0000 -12.4175 -5.7300 13.9115 0.0000 -0.0000 0.0000 78.9144 -19.0503 65.3071 -29.9719 40.8693 -11.3912 0.0000 -0.0000 -27.9721 -4.0998 -64.7479 3.7092 7.1250 -0.0000 -0.0000 -163.2588 -5.6548 15.7121
8.5714 15.1155 42.0291 -178.5100 -7.3227 -177.9670 0.0000 0.0000 0.0000 -22.2875 -21.1195 -7.9558 3.1356 10.9114 31.9817 1.8817 5.3525 -28.2846 1.8256 -8.4929 -24.2215 0.0000 0.0000 0.0000 22.3953 7.3380 -9.0759 -2.5742 -9.9716 28.8850 -1.2790 -12.8885 -29.4927 -0.0253 -1.0271 2.8234 0.7019 1.9550 6.1311 -0.7467 2.5819 -3.7530 -1.4913 1.1891 -7.3051 1.6619 6.7870 -7.0935 4.6767 6.9072 23.6398 1.8461 3.3659 8.3905 0.0000 -0.0000 0.0000 -83.9545 12.4390 40.0081 21.3520 -32.2369 -6.2366 -0.0000 -0.0000 14.2205 3.2947 -37.0004 -1.9842 -7.1250 0.0000 -0.0000 -16.1697 -5.7854 18.4335 0.0000 -0.0000 0.0000 78.9920 -19.1464 65.3353 -30.0196 40.9102 -11.4225 0.0000 -0.0000 -28.0301 -4.9506 -64.5381 4.4718 7.1250 -0.0000 -0.0000 -163.5110 -5.4551 15.5186
8.5669 15.1138 42.0298 -178.5690 -7.2640 -178.0560 0.0000 0.0000 0.0000 -22.4535 -21.2513 -7.7235 3.1239 10.8929 31.9195 1.8659 5.5859 -28.3048 2.1313 -9.1344 -26.2165 0.0000 0.0000 0.0000 22.3309 7.3179 -9.0162 -2.5858 -9.9923 28.9517 -1.2538 -13.0738 -29.4849 -0.0181 -0.8691 2.3886 0.7041 1.9249 6.2998 -0.7595 2.5417 -3.7827 -1.5089 1.1671 -7.4353 1.4665 6.7572 -7.0972 4.8057 6.8495 23.7483 1.9174 3.3277 8.4145 -0.0000 0.0000 0.0000 -83.9751 12.6803 40.1203 21.2762 -32.1494 -6.1963 -0.0000 -0.0000 14.7857 4.9300 -36.9887 -2.9709 -7.1250 0.0000 -0.0000 -15.3193 -5.9558 17.4318 -0.0000 0.0000 0.0000 78.9659 -19.2446 65.3847 -30.0464 40.9331 -11.4400 0.0000 -0.0000 -27.9703 -5.0487 -64.3662 4.5540 7.1250 -0.0000 -0.0000 -163.5515 -5.2904 15.5304
8.5635 15.1150 42.0282 -178.6380 -7.1688 -178.1310 0.0000 0.0000 0.0000 -22.6311 -21.4243 -7.4743 3.1109 10.8724 31.8509 1.8833 5.6594 -28.4611 2.1617 -9.1951 -26.4075 0.0000 0.0000 0.0000 22.2461 7.2521 -8.9746 -2.6031 -10.0231 29.0514 -1.2858 -12.7948 -29.4572 -0.0268 -1.0566 2.9046 0.6589 1.9039 6.3775 -0.7697 2.5090 -3.7845 -1.4935 1.1525 -7.4846 1.2897 6.7290 -7.0691 4.9438 6.7940 23.8026 1.9864 3.2942 8.4149 0.0000 0.0000 0.0000 -84.0427 12.7770 39.8622 21.3201 -32.2001 -6.2196 -0.0000 -0.0000 14.2761 3.4995 -37.1756 -2.1163 -7.1250 0.0000 -0.0000 -16.0727 -5.9750 18.3620 0.0000 0.0000 0.0000 78.9178 -19.2642 65.4950 -30.0544 40.9400 -11.4452 0.0000 -0.0000 -27.9743 -4.4823 -64.3225 4.0412 7.1250 -0.0000 -0.0000 -163.3960 -5.2464 15.7055
8.5630 15.1172 42.0243 -178.6970 -7.2222 -178.1320 0.0000 0.0000 0.0000 -22.6696 -21.2982 -7.4465 3.0964 10.8495 31.7738 1.9031 5.3954 -28.4500 1.9513 -8.7638 -25.0593 0.0000 0.0000 0.0000 22.1843 7.1684 -8.9894 -2.6188 -10.0508 29.1412 -1.3181 -12.5648 -29.4766 -0.0335 -1.1816 3.2485 0.6165 1.8438 6.3050 -0.8063 2.4204 -3.7850 -1.4941 1.1101 -7.4457 1.2868 6.7026 -6.9490 4.9439 6.7463 23.8118 1.9777 3.2651 8.3968 -0.0000 -0.0000 0.0000 -83.9895 12.9207 39.9298 21.1548 -32.0086 -6.1318 -0.0000 -0.0000 14.8537 5.5246 -37.7002 -3.3851 -7.1250 0.0000 -0.0000 -15.0573 -6.7102 17.2891 -0.0000 -0.0000 0.0000 78.8874 -19.2433 65.7150 -30.0625 40.9469 -11.4506 0.0000 -0.0000 -28.1085 -4.3245 -64.2364 3.8960 7.1250 -0.0000 -0.0000 -163.3575 -5.1636 15.7725
8.5572 15.1190 42.0303 -178.7870 -6.7192 -177.8990 0.0000 0.0000 0.0000 -22.6845 -21.0088 -7.7575 3.0880 10.8361 31.7291 1.9048 5.3945 -28.4607 1.7588 -8.3446 -23.7656 0.0000 0.0000 0.0000 21.9731 7.4096 -9.3335 -2.6307 -10.0717 29.2094 -1.2948 -12.4263 -29.2013 -0.0188 -0.8859 2.4350 0.5726 1.9802 6.1542 -0.8582 2.5888 -3.8836 -1.5411 1.1905 -7.4586 1.4001 6.6585 -6.6824 4.7316 6.7147 23.7160 1.8731 3.2336 8.3296 -0.0000 -0.0000 0.0000 -83.9838 13.0160 39.7504 21.2342 -32.1007 -6.1739 -0.0000 -0.0000 14.1792 3.6622 -37.8936 -2.2512 -7.1250 0.0000 -0.0000 -16.0287 -6.6804 18.4836 -0.0000 -0.0000 0.0000 78.8399 -19.2422 65.9496 -30.0381 40.9260 -11.4346 0.0000 -0.0000 -28.2363 -4.9864 -64.0671 4.4865 7.1250 -0.0000 -0.0000 -163.5572 -5.0023 15.6179
